<svg width="20" height="20" viewBox="0 0 20 20" fill="none" xmlns="http://www.w3.org/2000/svg">
<path d="M4.72983 5.91681L1.75257 8.89381C1.58657 9.05981 1.39466 9.14181 1.17682 9.13981C0.958825 9.13781 0.766825 9.05381 0.600824 8.88781C0.451658 8.73865 0.373908 8.5509 0.367574 8.32456C0.361241 8.09823 0.432658 7.90215 0.581824 7.73631L1.42207 6.87706L0.624824 6.07381C0.454824 5.90381 0.369825 5.7039 0.369825 5.47406C0.369825 5.24423 0.454824 5.04431 0.624824 4.87431L2.15907 3.34006L1.71182 2.89881C1.53782 2.72881 1.45082 2.5289 1.45082 2.29906C1.45082 2.06923 1.53582 1.87131 1.70582 1.70531C1.85899 1.54798 2.05374 1.46614 2.29007 1.45981C2.52624 1.45348 2.72932 1.52698 2.89932 1.68031L3.36557 2.13356L4.87483 0.624312C5.04483 0.454312 5.24474 0.369312 5.47457 0.369312C5.70441 0.369312 5.90632 0.454312 6.08033 0.624312L6.87757 1.42156L7.74283 0.575311C7.90866 0.426145 8.10157 0.351562 8.32158 0.351562C8.54158 0.351562 8.73249 0.432478 8.89433 0.594312C9.06033 0.764312 9.14332 0.958312 9.14332 1.17631C9.14332 1.39415 9.06033 1.58606 8.89433 1.75206L5.92307 4.72331L15.2758 14.0761L18.2471 11.1048C18.4131 10.9388 18.606 10.8558 18.8258 10.8558C19.0458 10.8558 19.2388 10.9388 19.4048 11.1048C19.554 11.254 19.6317 11.4427 19.6381 11.6711C19.6444 11.8994 19.573 12.0945 19.4238 12.2563L18.5776 13.1216L19.3748 13.9188C19.5448 14.0928 19.6298 14.2947 19.6298 14.5246C19.6298 14.7544 19.5448 14.9543 19.3748 15.1243L17.8156 16.6836L18.2688 17.1248C18.4388 17.2948 18.5238 17.4947 18.5238 17.7246C18.5238 17.9544 18.4388 18.1523 18.2688 18.3183C18.099 18.4883 17.9001 18.5733 17.6721 18.5733C17.4442 18.5733 17.2453 18.4863 17.0753 18.3123L16.6341 17.8651L15.1248 19.3743C14.9548 19.5443 14.7549 19.6293 14.5251 19.6293C14.2952 19.6293 14.0953 19.5443 13.9253 19.3743L13.1221 18.5771L12.2568 19.4233C12.091 19.5725 11.8991 19.6461 11.6811 19.6441C11.4631 19.6421 11.2732 19.5601 11.1113 19.3983C10.9413 19.2323 10.8563 19.0403 10.8563 18.8223C10.8563 18.6045 10.9413 18.4106 11.1113 18.2406L14.0823 15.2693L4.72983 5.91681Z" fill="black"/>
</svg>
