<svg width="18" height="19" viewBox="0 0 18 19" fill="none" xmlns="http://www.w3.org/2000/svg">
<path d="M16.4668 1.23242C16.7255 1.23244 16.9054 1.31162 17.0469 1.45312C17.1881 1.59454 17.2666 1.77387 17.2666 2.03223C17.2666 2.29086 17.1883 2.47081 17.0469 2.6123L10.5127 9.14551L10.1592 9.49902L10.5127 9.85254L17.0469 16.3857C17.1883 16.5272 17.2666 16.7071 17.2666 16.9658C17.2666 17.2245 17.1884 17.4044 17.0469 17.5459C16.9054 17.6874 16.7255 17.7656 16.4668 17.7656C16.2081 17.7656 16.0282 17.6874 15.8867 17.5459L9.35352 11.0117L9 10.6582L8.64648 11.0117L2.11328 17.5459C1.97179 17.6873 1.79184 17.7656 1.5332 17.7656C1.27485 17.7656 1.09551 17.6871 0.954102 17.5459C0.812598 17.4044 0.733412 17.2245 0.733398 16.9658C0.733398 16.7071 0.812588 16.5273 0.954102 16.3857L7.84082 9.49902L0.954102 2.6123C0.812588 2.47079 0.733398 2.29094 0.733398 2.03223C0.733438 1.77362 0.812624 1.5946 0.954102 1.45312C1.09558 1.31165 1.27459 1.23246 1.5332 1.23242C1.79192 1.23242 1.97177 1.31161 2.11328 1.45312L9 8.33984L15.8867 1.45312C16.0282 1.31161 16.2081 1.23242 16.4668 1.23242Z" fill="black" stroke="black"/>
</svg>
