<svg width="20" height="22" viewBox="0 0 20 22" fill="none" xmlns="http://www.w3.org/2000/svg">
<path d="M4.73114 21.1487C4.48947 21.1487 4.2878 21.0669 4.12614 20.9032C3.96464 20.7396 3.88389 20.5375 3.88389 20.297V11.7702C2.88605 11.5201 2.10114 11.0468 1.52914 10.3505C0.957304 9.65417 0.671387 8.83942 0.671387 7.90625V1.6775C0.671387 1.44383 0.751803 1.2465 0.912637 1.0855C1.07347 0.924333 1.27055 0.84375 1.50389 0.84375C1.73722 0.84375 1.93372 0.924333 2.09339 1.0855C2.25289 1.2465 2.33264 1.44383 2.33264 1.6775V7.05475H3.90764V1.6775C3.90764 1.44383 3.98814 1.2465 4.14914 1.0855C4.30997 0.924333 4.50705 0.84375 4.74039 0.84375C4.97372 0.84375 5.17014 0.924333 5.32964 1.0855C5.4893 1.2465 5.56914 1.44383 5.56914 1.6775V7.05475H7.16914V1.6775C7.16914 1.44383 7.24955 1.2465 7.41039 1.0855C7.57139 0.924333 7.76855 0.84375 8.00189 0.84375C8.23522 0.84375 8.43164 0.924333 8.59114 1.0855C8.7508 1.2465 8.83064 1.44383 8.83064 1.6775V7.8945C8.83064 8.83133 8.54264 9.64492 7.96664 10.3352C7.3908 11.0257 6.59764 11.5018 5.58714 11.7635V20.297C5.58714 20.5375 5.50489 20.7396 5.34039 20.9032C5.17589 21.0669 4.9728 21.1487 4.73114 21.1487ZM15.3366 21.1487C15.0953 21.1487 14.8938 21.0669 14.7321 20.9032C14.5706 20.7396 14.4899 20.5375 14.4899 20.297V11.3387C13.5359 10.9991 12.7737 10.3679 12.2034 9.44525C11.6331 8.52258 11.3479 7.43058 11.3479 6.16925C11.3479 4.68858 11.7378 3.43083 12.5176 2.396C13.2976 1.36117 14.2389 0.84375 15.3414 0.84375C16.4441 0.84375 17.3853 1.36292 18.1651 2.40125C18.945 3.43975 19.3349 4.69575 19.3349 6.16925C19.3349 7.42825 19.0497 8.52058 18.4794 9.44625C17.9092 10.3721 17.1491 11.0117 16.1991 11.365V20.297C16.1991 20.5375 16.1157 20.7396 15.9489 20.9032C15.7819 21.0669 15.5778 21.1487 15.3366 21.1487Z" fill="black"/>
</svg>
