<svg aria-hidden="true" style="position: absolute; width: 0; height: 0; overflow: hidden;" version="1.1" xmlns="http://www.w3.org/2000/svg" xmlns:xlink="http://www.w3.org/1999/xlink">
<defs>
<symbol id="icon-burger" viewBox="0 0 32 32">
<path d="M5.333 8h21.333v2.667h-21.333v-2.667zM5.333 14.667h21.333v2.667h-21.333v-2.667zM5.333 21.333h21.333v2.667h-21.333v-2.667z"></path>
</symbol>
<symbol id="icon-logo" viewBox="0 0 32 32">
<path fill="#33adc1" style="fill: var(--color1, #33adc1)" d="M31.996 15.998c0 8.725-7.073 15.798-15.798 15.798-0.328 0-0.653-0.010-0.975-0.030-1.352-0.082-2.658-0.335-3.897-0.736-0.471-0.152-0.933-0.327-1.384-0.521-5.614-2.423-9.543-8.008-9.543-14.511 0-8.725 7.073-15.798 15.798-15.798s15.798 7.073 15.798 15.798z"></path>
<path fill="#eae0d3" style="fill: var(--color2, #eae0d3)" d="M15.224 31.769c-1.866-0.114-3.645-0.551-5.28-1.257 6.118-8.248-4.473-16.104-4.473-16.104l5.34-1.318c0-0 11.428 6.971 4.414 18.679z"></path>
<path fill="#d6c8b0" style="fill: var(--color3, #d6c8b0)" d="M11.328 31.033c-0.471-0.152-0.933-0.327-1.384-0.521 6.118-8.248-4.473-16.104-4.473-16.104l1.543-0.381c0.374 0.28 0.898 0.644 1.432 1.144 2.786 2.602 6.827 8.139 2.881 15.862z"></path>
<path fill="#eae0d3" style="fill: var(--color2, #eae0d3)" d="M14.622 8.992c0 3.411-2.765 6.176-6.176 6.176s-6.176-2.765-6.176-6.176c0-0.509 0.061-1.004 0.178-1.477s0.287-0.925 0.505-1.348l-2.552-2.552 4.182 0.559-2.145-2.66 4.905 1.401-0.535-2.714c0 0 4.267 2.36 6.294 4.734 0.154 0.176 0.297 0.361 0.43 0.554 0.687 0.996 1.091 2.203 1.091 3.504z"></path>
<path fill="#2f373b" style="fill: var(--color4, #2f373b)" d="M11.765 7.731c0 0.835-0.677 1.513-1.512 1.513s-1.513-0.677-1.513-1.513c0-0.835 0.677-1.513 1.513-1.513s1.512 0.677 1.512 1.513z"></path>
<path fill="#ff648d" style="fill: var(--color5, #ff648d)" d="M25.943 8.732c-0.621 0.324-1.276 0.251-1.801 0.077-0.614-0.203-1.052-0.542-1.052-0.542s-2.212-2.171-0.51-3.116c0.514-0.285 0.93-0.284 1.26-0.142h0.001c0.764 0.328 1.071 1.402 1.071 1.402s0.616-1.597 1.978-1.113c1.362 0.483 0.398 2.731-0.947 3.435z"></path>
<path fill="#ea2f69" style="fill: var(--color6, #ea2f69)" d="M24.142 8.809c-0.614-0.203-1.052-0.542-1.052-0.542s-2.212-2.171-0.51-3.116c0.514-0.285 0.93-0.284 1.26-0.142-0.753-0.042-0.777 2.733 0.302 3.801z"></path>
<path fill="#fff" style="fill: var(--color7, #fff)" d="M11.334 7.25c0 0.261-0.212 0.473-0.473 0.473s-0.473-0.212-0.473-0.473c0-0.261 0.212-0.472 0.473-0.472s0.473 0.212 0.473 0.472z"></path>
<path fill="#ff648d" style="fill: var(--color5, #ff648d)" d="M23.642 9.463c0 2.304-6.271 9.3-2.175 12.199 1.024 0.725 2.154 0.961 3.274 0.908 1.119 0.053 2.25-0.183 3.274-0.908 4.096-2.899-2.175-9.895-2.175-12.199z"></path>
<path fill="#ea2f69" style="fill: var(--color6, #ea2f69)" d="M24.572 22.574c-1.065 0.023-2.132-0.225-3.105-0.913-4.097-2.899 2.175-9.895 2.175-12.199h0.672c0 2.304-2.437 9.3-0.845 12.199 0.346 0.631 0.724 0.892 1.103 0.913z"></path>
<path fill="#ea2f69" style="fill: var(--color6, #ea2f69)" d="M24.573 22.576c0.056-0 0.112-0.003 0.169-0.005-0.056 0.007-0.112 0.009-0.169 0.005z"></path>
<path fill="#ea2f69" style="fill: var(--color6, #ea2f69)" d="M24.911 22.576c-0.056 0.004-0.112 0.002-0.168-0.005 0.056 0.002 0.112 0.005 0.168 0.005z"></path>
<path fill="#ffd62c" style="fill: var(--color8, #ffd62c)" d="M28.864 9.055l-15.63 2.584c0 0-0.546-0.827-0.744-1.924-0.177-0.978-0.077-2.171 0.933-3.181l15.441 2.521z"></path>
<path fill="#ffb92e" style="fill: var(--color9, #ffb92e)" d="M28.865 9.054l-15.63 2.584c0 0-0.546-0.827-0.744-1.924l16.374-0.66z"></path>
<path fill="#d6c8b0" style="fill: var(--color3, #d6c8b0)" d="M8.445 15.167c-3.411 0-6.176-2.765-6.176-6.176 0-0.509 0.061-1.004 0.178-1.477s0.287-0.925 0.505-1.348l-2.552-2.552 4.182 0.559-2.145-2.66 5 2.815c0 0-3.088 1.135-3.088 4.727s4.097 6.113 4.097 6.113z"></path>
</symbol>
<symbol id="icon-leleka-logo" viewBox="0 0 142 32">
<path d="M129.358 30.732c-1.827 0-3.466-0.451-4.918-1.351-1.451-0.926-2.603-2.165-3.454-3.717-0.826-1.577-1.239-3.354-1.239-5.331s0.451-3.754 1.352-5.331c0.926-1.577 2.165-2.816 3.716-3.716 1.577-0.926 3.341-1.389 5.293-1.389s3.704 0.463 5.256 1.389c1.552 0.901 2.778 2.14 3.679 3.716 0.926 1.577 1.389 3.354 1.389 5.331h-1.464c0 1.977-0.425 3.754-1.276 5.331-0.826 1.552-1.965 2.791-3.416 3.717-1.451 0.901-3.091 1.351-4.918 1.351zM130.109 27.353c1.276 0 2.415-0.3 3.416-0.901 1.001-0.626 1.79-1.464 2.365-2.515 0.576-1.076 0.864-2.277 0.864-3.604 0-1.351-0.288-2.553-0.864-3.604-0.576-1.076-1.364-1.915-2.365-2.515-1.001-0.626-2.14-0.938-3.416-0.938-1.251 0-2.39 0.313-3.416 0.938-1.001 0.601-1.802 1.439-2.403 2.515-0.576 1.051-0.863 2.252-0.863 3.604 0 1.326 0.288 2.528 0.863 3.604 0.601 1.051 1.402 1.89 2.403 2.515 1.026 0.601 2.165 0.901 3.416 0.901zM138.518 30.619c-0.551 0-1.013-0.175-1.389-0.526-0.35-0.375-0.525-0.838-0.525-1.389v-5.744l0.713-3.979 3.116 1.351v8.372c0 0.55-0.188 1.014-0.563 1.389-0.35 0.35-0.801 0.526-1.352 0.526z"></path>
<path d="M117.002 30.13c-0.325 0.3-0.788 0.451-1.389 0.451-0.576-0.025-1.026-0.2-1.351-0.526l-9.122-9.798 8.597-9.61c0.326-0.35 0.776-0.551 1.352-0.601 0.601-0.050 1.064 0.075 1.389 0.375 0.375 0.35 0.588 0.751 0.638 1.201 0.050 0.425-0.088 0.813-0.413 1.164l-6.795 7.283 7.208 7.733c0.325 0.326 0.488 0.713 0.488 1.164 0 0.425-0.2 0.813-0.601 1.164zM102.137 30.618c-0.551 0-0.989-0.175-1.314-0.526-0.325-0.376-0.488-0.838-0.488-1.389v-16.743c0-0.576 0.163-1.039 0.488-1.389s0.763-0.526 1.314-0.526c0.576 0 1.039 0.175 1.389 0.526 0.375 0.35 0.563 0.813 0.563 1.389v6.269h4.805v3.529h-4.805v6.945c0 0.551-0.188 1.014-0.563 1.389-0.35 0.35-0.813 0.526-1.389 0.526z"></path>
<path d="M86.288 30.732c-2.077 0-3.929-0.438-5.556-1.314-1.602-0.901-2.866-2.127-3.792-3.679-0.901-1.577-1.352-3.379-1.352-5.406 0-2.052 0.425-3.854 1.276-5.406 0.876-1.577 2.077-2.803 3.604-3.679 1.527-0.901 3.278-1.351 5.256-1.351 1.952 0 3.629 0.438 5.030 1.314 1.401 0.851 2.465 2.040 3.191 3.566 0.751 1.502 1.126 3.241 1.126 5.218 0 0.476-0.163 0.876-0.488 1.201-0.325 0.3-0.738 0.451-1.239 0.451h-15.128v-3.003h15.016l-1.539 1.051c-0.025-1.251-0.275-2.365-0.751-3.341-0.475-1.001-1.151-1.789-2.027-2.365s-1.939-0.863-3.191-0.863c-1.427 0-2.653 0.313-3.679 0.938-1.001 0.626-1.764 1.489-2.29 2.59-0.525 1.076-0.788 2.302-0.788 3.679s0.313 2.603 0.939 3.679c0.626 1.076 1.489 1.927 2.59 2.553s2.365 0.939 3.792 0.939c0.776 0 1.564-0.138 2.365-0.413 0.826-0.3 1.489-0.638 1.99-1.014 0.376-0.275 0.776-0.413 1.201-0.413 0.451-0.025 0.838 0.1 1.164 0.376 0.425 0.375 0.651 0.788 0.676 1.239s-0.175 0.838-0.6 1.164c-0.851 0.676-1.915 1.226-3.191 1.652-1.251 0.426-2.453 0.638-3.604 0.638z"></path>
<path d="M61.93 10.085c0.376 0 0.713 0.1 1.014 0.3s0.538 0.513 0.713 0.938l7.733 16.78c0.225 0.501 0.25 0.951 0.075 1.351-0.175 0.376-0.475 0.663-0.901 0.864-0.551 0.25-1.026 0.313-1.427 0.188s-0.738-0.438-1.014-0.939l-7.057-16.029h1.914l-7.283 16.029c-0.225 0.475-0.563 0.788-1.014 0.939-0.425 0.125-0.901 0.063-1.426-0.188-0.475-0.225-0.813-0.526-1.014-0.901-0.175-0.375-0.138-0.813 0.113-1.314l7.771-16.78c0.375-0.826 0.976-1.239 1.802-1.239z"></path>
<path d="M40.19 30.732c-2.077 0-3.929-0.438-5.556-1.314-1.602-0.901-2.866-2.127-3.792-3.679-0.901-1.577-1.352-3.379-1.352-5.406 0-2.052 0.426-3.854 1.276-5.406 0.876-1.577 2.077-2.803 3.604-3.679 1.527-0.901 3.279-1.351 5.256-1.351 1.952 0 3.629 0.438 5.030 1.314 1.402 0.851 2.465 2.040 3.191 3.566 0.751 1.502 1.126 3.241 1.126 5.218 0 0.476-0.163 0.876-0.488 1.201-0.325 0.3-0.738 0.451-1.239 0.451h-15.129v-3.003h15.016l-1.539 1.051c-0.025-1.251-0.275-2.365-0.751-3.341-0.475-1.001-1.151-1.789-2.027-2.365s-1.94-0.863-3.191-0.863c-1.426 0-2.653 0.313-3.679 0.938-1.001 0.626-1.764 1.489-2.29 2.59-0.526 1.076-0.788 2.302-0.788 3.679s0.313 2.603 0.938 3.679c0.626 1.076 1.489 1.927 2.59 2.553s2.365 0.939 3.792 0.939c0.776 0 1.564-0.138 2.365-0.413 0.826-0.3 1.489-0.638 1.989-1.014 0.376-0.275 0.776-0.413 1.201-0.413 0.45-0.025 0.838 0.1 1.164 0.376 0.426 0.375 0.651 0.788 0.676 1.239s-0.175 0.838-0.601 1.164c-0.851 0.676-1.914 1.226-3.191 1.652-1.251 0.426-2.453 0.638-3.604 0.638z"></path>
<path d="M3.498 30.582c-0.701 0-1.239-0.3-1.614-0.901s-0.413-1.239-0.113-1.915l10.549-25.189c0.375-0.876 0.989-1.314 1.839-1.314 0.901 0 1.514 0.438 1.839 1.314l10.586 25.264c0.275 0.701 0.238 1.339-0.113 1.915-0.325 0.551-0.851 0.826-1.577 0.826-0.375 0-0.738-0.1-1.089-0.3-0.325-0.225-0.563-0.526-0.713-0.901l-9.385-23.125h1.201l-9.61 23.125c-0.175 0.4-0.438 0.701-0.788 0.901-0.325 0.2-0.663 0.3-1.014 0.3z"></path>
</symbol>
</defs>
</svg>
