<svg xmlns="http://www.w3.org/2000/svg" aria-hidden="true" style="position:absolute;width:0;height:0;overflow:hidden">
  <defs>
    <symbol id="icon-stork" viewBox="0 0 31 32">
      <path fill="#33adc1" d="M30.964 16c0 8.444-6.845 15.288-15.288 15.288a15.173 15.173 0 0 1-6.053-1.246C4.19 27.698.388 22.292.388 15.999.388 7.555 7.233.711 15.676.711s15.288 6.845 15.288 15.288z" style="fill:var(--color1, #33adc1)"/>
      <path fill="#eae0d3" d="M14.733 31.26a15.213 15.213 0 0 1-5.11-1.217c5.92-7.982-4.329-15.584-4.329-15.584l5.167-1.275S21.52 19.93 14.732 31.26z" style="fill:var(--color2, #eae0d3)"/>
      <path fill="#d6c8b0" d="M10.962 30.548a15.032 15.032 0 0 1-1.339-.504c5.92-7.982-4.329-15.584-4.329-15.584l1.494-.369c.362.271.869.623 1.386 1.107 2.696 2.518 6.607 7.877 2.788 15.35z" style="fill:var(--color3, #d6c8b0)"/>
      <path fill="#eae0d3" d="M14.15 9.22A5.977 5.977 0 1 1 2.857 6.485l-2.47-2.47 4.047.541-2.076-2.574 4.746 1.355L6.587.71s4.129 2.284 6.091 4.581a5.947 5.947 0 0 1 1.471 3.927z" style="fill:var(--color2, #eae0d3)"/>
      <path fill="#2f373b" d="M11.384 8a1.464 1.464 0 1 1-2.928 0 1.464 1.464 0 0 1 2.928 0z" style="fill:var(--color4, #2f373b)"/>
      <path fill="#ff648d" d="M25.106 8.966c-.601.314-1.234.243-1.743.074-.595-.196-1.018-.525-1.018-.525s-2.14-2.101-.494-3.016c.497-.276.9-.275 1.219-.137h.001c.739.317 1.037 1.357 1.037 1.357s.596-1.546 1.915-1.078c1.318.467.386 2.643-.917 3.324z" style="fill:var(--color5, #ff648d)"/>
      <path fill="#ea2f69" d="M23.363 9.041c-.595-.196-1.018-.525-1.018-.525s-2.14-2.101-.494-3.016c.497-.276.9-.275 1.219-.137-.729-.041-.752 2.645.292 3.678z" style="fill:var(--color6, #ea2f69)"/>
      <path fill="#fff" d="M10.969 7.534a.457.457 0 1 1-.914 0 .457.457 0 0 1 .914 0z" style="fill:var(--color7, #fff)"/>
      <path fill="#ff648d" d="M22.88 9.673c0 2.23-6.069 9-2.104 11.805.991.702 2.085.93 3.169.879 1.083.052 2.177-.177 3.168-.879 3.964-2.805-2.105-9.575-2.105-11.805z" style="fill:var(--color5, #ff648d)"/>
      <path fill="#ea2f69" d="M23.781 22.362c-1.03.022-2.064-.218-3.005-.884-3.964-2.805 2.105-9.576 2.105-11.805h.65c0 2.229-2.358 9-.818 11.805.335.61.701.863 1.067.884z" style="fill:var(--color6, #ea2f69)"/>
      <path fill="#ea2f69" d="M23.78 22.362c.054 0 .109-.002.163-.005a.808.808 0 0 1-.163.005zM24.109 22.362a.81.81 0 0 1-.163-.005l.163.005z" style="fill:var(--color6, #ea2f69)"/>
      <path fill="#ffd62c" d="m27.934 9.281-15.125 2.5s-.528-.801-.72-1.862c-.171-.946-.075-2.1.903-3.078l14.942 2.44z" style="fill:var(--color8, #ffd62c)"/>
      <path fill="#ffb92e" d="m27.934 9.282-15.125 2.5s-.528-.801-.72-1.862l15.846-.638z" style="fill:var(--color9, #ffb92e)"/>
      <path fill="#d6c8b0" d="M8.173 15.198a5.977 5.977 0 0 1-5.316-8.712l-2.47-2.47 4.047.541-2.076-2.574 4.839 2.724S4.208 5.805 4.208 9.282s3.964 5.916 3.964 5.916z" style="fill:var(--color3, #d6c8b0)"/>
    </symbol>
    <symbol id="icon-travel" viewBox="0 0 35 32">
      <path d="M29.04 30.621c-1.163 0-2.168-.346-3.013-1.037s-1.377-1.52-1.597-2.486h-8.31c-1.781 0-3.256-.585-4.424-1.754s-1.753-2.646-1.753-4.428c0-1.776.584-3.249 1.753-4.418s2.643-1.754 4.424-1.754h3.08c1.072 0 1.951-.343 2.636-1.028s1.027-1.564 1.027-2.637-.342-1.951-1.027-2.635c-.685-.684-1.563-1.026-2.636-1.026h-8.42c-.253.965-.795 1.794-1.627 2.486s-1.83 1.037-2.993 1.037c-1.337 0-2.468-.463-3.393-1.388S1.38 7.497 1.38 6.16c0-1.337.462-2.468 1.387-3.393S4.823 1.38 6.16 1.38c1.163 0 2.161.346 2.993 1.037s1.374 1.52 1.627 2.486h8.42c1.779 0 3.254.585 4.423 1.754s1.754 2.644 1.754 4.423-.585 3.254-1.754 4.423c-1.17 1.169-2.644 1.754-4.423 1.754h-3.08c-1.074 0-1.953.342-2.637 1.026s-1.026 1.561-1.026 2.632c0 1.077.342 1.958 1.026 2.642s1.563 1.026 2.637 1.026h8.31c.246-.965.786-1.794 1.617-2.486s1.83-1.037 2.993-1.037c1.337 0 2.468.463 3.393 1.388s1.387 2.056 1.387 3.393c0 1.337-.462 2.468-1.387 3.393s-2.056 1.387-3.393 1.387zM6.16 8.321c.613 0 1.127-.207 1.54-.62s.62-.927.62-1.54-.207-1.127-.62-1.54-.927-.62-1.54-.62-1.127.207-1.54.62S4 5.548 4 6.161s.207 1.127.62 1.54.927.62 1.54.62z"/>
    </symbol>
    <symbol id="icon-account" viewBox="0 0 32 32">
      <path d="M6.653 24.085c1.521-1.055 3.031-1.864 4.528-2.428s3.105-.846 4.823-.846c1.718 0 3.333.284 4.845.852s3.023 1.376 4.534 2.422c1.055-1.315 1.803-2.626 2.242-3.933s.66-2.692.66-4.153c0-3.487-1.175-6.407-3.527-8.758s-5.27-3.527-8.757-3.527S9.594 4.89 7.242 7.241s-3.528 5.271-3.528 8.758c0 1.461.225 2.845.674 4.151s1.204 2.618 2.265 3.936zm9.34-6.934c-1.42 0-2.613-.485-3.578-1.456s-1.449-2.164-1.449-3.58.485-2.609 1.455-3.578c.97-.969 2.166-1.454 3.585-1.454s2.613.487 3.578 1.461c.966.974 1.449 2.168 1.449 3.584s-.485 2.607-1.455 3.574c-.97.966-2.166 1.449-3.585 1.449zm.019 13.611c-2.025 0-3.935-.387-5.73-1.161s-3.364-1.833-4.708-3.176c-1.344-1.343-2.402-2.91-3.176-4.7s-1.161-3.702-1.161-5.737c0-2.028.388-3.936 1.163-5.722s1.834-3.351 3.175-4.692c1.341-1.342 2.907-2.401 4.697-3.18s3.703-1.167 5.738-1.167c2.028 0 3.936.389 5.722 1.167s3.351 1.838 4.692 3.18c1.342 1.341 2.401 2.906 3.18 4.694s1.167 3.694 1.167 5.719c0 2.025-.389 3.935-1.167 5.731s-1.838 3.364-3.18 4.706c-1.341 1.342-2.906 2.4-4.694 3.175s-3.694 1.163-5.719 1.163zM16 28.284c1.316 0 2.596-.188 3.84-.564s2.484-1.041 3.72-1.993c-1.242-.867-2.488-1.523-3.738-1.97s-2.524-.669-3.821-.669-2.57.223-3.817.669c-1.247.446-2.492 1.103-3.734 1.97 1.236.952 2.475 1.617 3.716 1.993s2.519.564 3.835.564zm0-13.42c.806 0 1.466-.255 1.978-.764s.769-1.169.769-1.979-.256-1.471-.769-1.983c-.513-.513-1.172-.769-1.978-.769s-1.466.256-1.979.769c-.513.512-.769 1.174-.769 1.983s.256 1.469.769 1.979 1.172.764 1.979.764z"/>
    </symbol>
    <symbol id="icon-myDay" viewBox="0 0 29 32">
      <path d="M9.973 22.233c-.99 0-1.824-.342-2.503-1.025s-1.018-1.52-1.018-2.509c0-.99.342-1.824 1.025-2.503s1.52-1.018 2.509-1.018c.989 0 1.823.342 2.502 1.025s1.018 1.52 1.018 2.509c0 .989-.342 1.823-1.025 2.502s-1.52 1.018-2.509 1.018zm-6.258 8.529c-.669 0-1.249-.246-1.74-.737s-.737-1.071-.737-1.74V5.896c0-.672.246-1.254.737-1.747s1.071-.74 1.74-.74H6v-.94c0-.348.121-.642.362-.882s.535-.36.881-.36c.356 0 .656.12.901.36s.367.534.367.882v.94h12.068v-.94c0-.348.121-.642.363-.882s.535-.36.881-.36c.356 0 .657.12.901.36s.367.534.367.882v.94h2.285c.672 0 1.254.247 1.747.74s.74 1.075.74 1.747v22.389c0 .669-.247 1.249-.74 1.74s-1.075.737-1.747.737H3.714zm0-2.478h21.662V12.726H3.715v15.558zm0-17.74h21.662V5.895H3.715v4.649z"/>
    </symbol>
    <symbol id="icon-close" viewBox="0 0 31 32">
      <path stroke-width=".97" d="M22.756 7.983c.251 0 .425.077.562.214s.213.311.213.562c0 .251-.076.425-.213.563L16.639 16l6.679 6.678c.137.137.213.312.213.563s-.076.425-.213.563-.312.213-.562.213c-.251 0-.425-.076-.563-.213l-6.678-6.679-6.678 6.679c-.137.137-.312.213-.563.213s-.424-.076-.562-.213c-.137-.137-.214-.312-.214-.563s.077-.425.214-.563L14.39 16 7.712 9.322c-.137-.137-.214-.312-.214-.563s.077-.424.214-.562.311-.214.562-.214c.251 0 .425.077.563.214l6.678 6.678 6.678-6.678c.137-.137.312-.214.563-.214z"/>
    </symbol>
    <symbol id="icon-logout" viewBox="0 0 32 32">
      <path d="M6.072 28.198c-.613 0-1.145-.225-1.595-.676s-.676-.982-.676-1.595V6.07c0-.616.225-1.149.676-1.601s.982-.678 1.595-.678h8.807c.321 0 .59.111.808.334s.327.495.327.816c0 .322-.109.59-.327.806s-.487.323-.808.323H6.072v19.857h8.807c.321 0 .59.11.808.329s.327.49.327.812-.109.591-.327.806a1.102 1.102 0 0 1-.808.323H6.072zm17.784-11.063H13.088c-.32 0-.59-.11-.808-.329s-.327-.49-.327-.812.109-.591.327-.806c.218-.216.488-.323.808-.323h10.701l-2.564-2.564c-.227-.228-.334-.495-.323-.8s.13-.571.357-.795c.226-.229.496-.342.81-.34s.585.117.815.344l4.529 4.529c.221.228.332.494.332.797s-.111.568-.332.794l-4.496 4.496c-.222.227-.486.335-.792.327s-.577-.126-.812-.352c-.218-.227-.328-.497-.331-.811s.112-.585.344-.813l2.531-2.539z"/>
    </symbol>
    <symbol id="icon-book" viewBox="0 0 32 32">
      <path d="M7.349 21.269c.316-.202.659-.356 1.03-.461s.768-.158 1.192-.158h1.112V4.674H9.571c-.624 0-1.151.216-1.579.647s-.643.959-.643 1.583v14.365zm5.549-.619h11.761V4.674H12.898V20.65zm-3.327 8.882c-1.228 0-2.275-.432-3.14-1.297s-1.297-1.911-1.297-3.14V6.904c0-1.23.432-2.279 1.297-3.145s1.911-1.3 3.14-1.3h15.024c.632 0 1.17.222 1.614.665s.665.981.665 1.614v17.246c0 .217-.056.414-.167.591s-.253.301-.427.373c-.406.168-.725.442-.956.822s-.347.818-.347 1.315.115.934.345 1.311.548.648.954.812c.192.084.34.229.443.437s.155.46.155.756v.037c0 .302-.107.56-.322.774s-.478.32-.789.32H9.572zm-.015-2.216h13.8a4.447 4.447 0 0 1-.593-2.221c0-.424.053-.821.158-1.192s.262-.717.469-1.039H9.559c-.61 0-1.131.216-1.562.647s-.647.959-.647 1.583c0 .619.216 1.144.647 1.575s.951.647 1.56.647z"/>
    </symbol>
    <symbol id="icon-burger" viewBox="0 0 32 32">
      <path d="M5.333 8h21.333v2.667H5.333V8zm0 6.667h21.333v2.667H5.333v-2.667zm0 6.666h21.333V24H5.333v-2.667z"/>
    </symbol>
    <symbol id="keyboard_arrow_down" viewBox="0 0 32 32">
      <path d="M16 20.269c-.149 0-.29-.027-.422-.083s-.259-.143-.381-.265l-6.592-6.592c-.227-.227-.334-.497-.323-.812s.13-.586.357-.812c.227-.227.497-.34.812-.34s.586.113.812.34l5.738 5.771 5.771-5.771c.227-.227.492-.334.796-.323s.569.13.796.357c.227.227.34.497.34.812s-.113.586-.34.812l-6.559 6.559a1.088 1.088 0 0 1-.803.348z"/>
    </symbol>
  </defs>
</svg>