<svg width="24" height="24" viewBox="0 0 24 24" fill="none" xmlns="http://www.w3.org/2000/svg">
  <path d="M6.47711 21.1498C6.00295 21.1498 5.59953 20.9841 5.26686 20.6526C4.9342 20.3211 4.76786 19.9191 4.76786 19.4466V5.29805H4.49286C4.25236 5.29805 4.05028 5.2158 3.88661 5.0513C3.72295 4.8868 3.64111 4.68372 3.64111 4.44205C3.64111 4.20039 3.72295 3.9988 3.88661 3.8373C4.05028 3.67564 4.25236 3.59481 4.49286 3.59481H8.59811C8.59811 3.35031 8.68003 3.14622 8.84386 2.98255C9.00753 2.81905 9.20953 2.7373 9.44986 2.7373H14.5439C14.7842 2.7373 14.9863 2.82022 15.1501 2.98606C15.3138 3.15205 15.3956 3.35497 15.3956 3.59481H19.5069C19.7474 3.59481 19.9494 3.67706 20.1131 3.84156C20.2768 4.00606 20.3586 4.20914 20.3586 4.45081C20.3586 4.69247 20.2768 4.89414 20.1131 5.0558C19.9494 5.2173 19.7474 5.29805 19.5069 5.29805H19.2319V19.4466C19.2319 19.9191 19.0655 20.3211 18.7329 20.6526C18.4002 20.9841 17.9968 21.1498 17.5226 21.1498H6.47711ZM17.5226 5.29805H6.47711V19.4466H17.5226V5.29805ZM11.9999 13.5781L14.3521 15.9493C14.5268 16.1278 14.7387 16.2202 14.9879 16.2266C15.2372 16.2329 15.4512 16.1446 15.6299 15.9618C15.8044 15.7738 15.8916 15.5606 15.8916 15.3221C15.8916 15.0837 15.8044 14.8752 15.6299 14.6966L13.2776 12.3003L15.6299 9.89805C15.8044 9.72339 15.8916 9.51564 15.8916 9.2748C15.8916 9.0338 15.8044 8.82397 15.6299 8.64531C15.4512 8.47081 15.2372 8.38356 14.9879 8.38356C14.7387 8.38356 14.5268 8.47081 14.3521 8.64531L11.9999 11.0226L9.67261 8.64531C9.49795 8.47081 9.28703 8.38356 9.03986 8.38356C8.79253 8.38356 8.57953 8.47081 8.40086 8.64531C8.22636 8.82397 8.13911 9.03797 8.13911 9.2873C8.13911 9.53647 8.22636 9.74839 8.40086 9.92305L10.7471 12.3003L8.40086 14.6776C8.22236 14.8522 8.13411 15.0631 8.13611 15.3103C8.13811 15.5576 8.22636 15.7706 8.40086 15.9493C8.58053 16.1238 8.79378 16.2111 9.04061 16.2111C9.28728 16.2111 9.49995 16.1238 9.67861 15.9493L11.9999 13.5781Z" fill="black" />
</svg>