<svg width="24" height="24" viewBox="0 0 24 24" fill="none" xmlns="http://www.w3.org/2000/svg">
  <path d="M4.55384 21.1493C4.09384 21.1493 3.695 20.9804 3.35734 20.6426C3.0195 20.3049 2.85059 19.9061 2.85059 19.4461V4.55359C2.85059 4.09192 3.0195 3.69167 3.35734 3.35284C3.695 3.01384 4.09384 2.84434 4.55384 2.84434H12.6218C12.9077 2.84434 13.1221 2.93292 13.2651 3.11008C13.4079 3.28708 13.4793 3.48175 13.4793 3.69409C13.4793 3.90659 13.4073 4.103 13.2633 4.28334C13.1193 4.4635 12.9075 4.55359 12.6278 4.55359H4.55384V19.4461H19.4463V11.3031C19.4463 11.0233 19.5348 10.8113 19.7118 10.6673C19.8888 10.5235 20.0836 10.4516 20.2961 10.4516C20.5086 10.4516 20.7049 10.5235 20.8851 10.6673C21.0654 10.8113 21.1556 11.0233 21.1556 11.3031V19.4461C21.1556 19.9061 20.9861 20.3049 20.6471 20.6426C20.3083 20.9804 19.908 21.1493 19.4463 21.1493H4.55384ZM8.92834 14.2198V11.4286C8.92834 11.1943 8.975 10.9709 9.06834 10.7586C9.16167 10.5463 9.28692 10.3614 9.44409 10.2041L18.4126 1.24158C18.5826 1.07175 18.7713 0.948502 18.9786 0.871835C19.1859 0.795169 19.3953 0.756836 19.6066 0.756836C19.8134 0.756836 20.0242 0.799335 20.2388 0.884335C20.4533 0.969335 20.6486 1.09675 20.8246 1.26658L22.7083 3.16934C22.8757 3.34267 23.0034 3.532 23.0916 3.73734C23.1799 3.94284 23.2241 4.15192 23.2241 4.36459C23.2241 4.57842 23.1809 4.79492 23.0946 5.01409C23.0081 5.23309 22.8793 5.42817 22.7083 5.59934L13.7958 14.5618C13.6385 14.719 13.4537 14.8433 13.2413 14.9346C13.029 15.0259 12.8057 15.0716 12.5713 15.0716H9.78009C9.53959 15.0716 9.3375 14.9898 9.17384 14.8261C9.01017 14.6624 8.92834 14.4603 8.92834 14.2198ZM10.5478 13.4521H12.6071L18.8903 7.16884L17.8533 6.14884L16.8121 5.13459L10.5478 11.3678V13.4521Z" fill="black" />
</svg>