<svg
  width="8"
  height="12"
  viewBox="0 0 8 12"
  fill="none"
  xmlns="http://www.w3.org/2000/svg"
>
  <path
    d="M1.38672 0.671875C1.48754 0.671875 1.56452 0.702287 1.64258 0.780273L6.58691 5.72461C6.6408 5.77853 6.66598 5.82051 6.67773 5.84863V5.84961C6.69251 5.88517 6.70117 5.92494 6.70117 5.97363C6.70117 6.02233 6.69252 6.06209 6.67773 6.09766V6.09863C6.66598 6.12676 6.6408 6.16874 6.58691 6.22266L1.61816 11.1914C1.54039 11.2692 1.47325 11.291 1.39258 11.2881C1.29855 11.2846 1.21769 11.2527 1.13184 11.167C1.05371 11.0889 1.02246 11.012 1.02246 10.9111C1.02246 10.8102 1.05371 10.7334 1.13184 10.6553L5.81348 5.97363L1.10645 1.2666C1.02878 1.1889 1.00684 1.12259 1.00977 1.04199C1.01321 0.947725 1.04578 0.866328 1.13184 0.780273C1.20976 0.702464 1.28613 0.671951 1.38672 0.671875Z"
    fill="currentColor"
    stroke="currentColor"
  />
</svg>
