<svg width="23" height="19" viewBox="0 0 23 19" fill="none" xmlns="http://www.w3.org/2000/svg">
<path d="M4.0635 18.4485C3.836 18.4485 3.63733 18.3621 3.4675 18.1893C3.2975 18.0166 3.2125 17.8161 3.2125 17.5878V16.475H2.8875C2.08517 16.475 1.40333 16.1943 0.842 15.6328C0.280667 15.0714 0 14.3897 0 13.5875V7.4875C0 6.62817 0.257333 5.96708 0.772 5.50425C1.28667 5.04125 1.896 4.79583 2.6 4.768V2.7375C2.6 1.93267 2.855 1.27517 3.365 0.764999C3.87517 0.254999 4.53267 0 5.3375 0H16.9625C17.7673 0 18.4207 0.254999 18.9225 0.764999C19.4242 1.27517 19.675 1.93267 19.675 2.7375V4.768C20.379 4.79583 20.9883 5.04125 21.503 5.50425C22.0177 5.96708 22.275 6.62817 22.275 7.4875V13.5875C22.275 14.3897 21.9942 15.0714 21.4328 15.6328C20.8714 16.1943 20.1897 16.475 19.3875 16.475H19.0625V17.5878C19.0625 17.8161 18.9775 18.0166 18.8075 18.1893C18.6377 18.3621 18.4387 18.4485 18.2108 18.4485C17.9829 18.4485 17.7841 18.3621 17.6143 18.1893C17.4443 18.0166 17.3593 17.8161 17.3593 17.5878V16.475H4.92175V17.5895C4.92175 17.8182 4.83558 18.0185 4.66325 18.1905C4.49108 18.3625 4.29117 18.4485 4.0635 18.4485ZM2.8875 14.7718H19.3875C19.7022 14.7718 19.9783 14.6524 20.2157 14.4137C20.4531 14.1751 20.5718 13.8997 20.5718 13.5875V7.4875C20.5718 7.17567 20.4776 6.92533 20.2893 6.7365C20.1009 6.54767 19.8503 6.45325 19.5373 6.45325C19.2241 6.45325 18.9735 6.54767 18.7855 6.7365C18.5973 6.92533 18.5033 7.17567 18.5033 7.4875V11.9532H3.77175V7.4875C3.77175 7.17567 3.67758 6.92533 3.48925 6.7365C3.30092 6.54767 3.05025 6.45325 2.73725 6.45325C2.42408 6.45325 2.1735 6.54767 1.9855 6.7365C1.79733 6.92533 1.70325 7.17567 1.70325 7.4875V13.5875C1.70325 13.8997 1.82258 14.1751 2.06125 14.4137C2.29992 14.6524 2.57533 14.7718 2.8875 14.7718ZM5.475 10.25H16.8V7.4875C16.8 6.9555 16.9214 6.50617 17.1643 6.1395C17.4073 5.773 17.6764 5.4805 17.9718 5.262V2.7375C17.9718 2.42283 17.8781 2.17175 17.6908 1.98425C17.5033 1.79692 17.2543 1.70325 16.944 1.70325H5.331C5.02317 1.70325 4.77492 1.79692 4.58625 1.98425C4.39758 2.17175 4.30325 2.42283 4.30325 2.7375V5.262C4.59858 5.4805 4.86775 5.773 5.11075 6.1395C5.35358 6.50617 5.475 6.9555 5.475 7.4875V10.25Z" fill="black"/>
</svg>
