<svg width="22" height="19" viewBox="0 0 22 19" fill="none" xmlns="http://www.w3.org/2000/svg">
<path d="M18.2389 13.0139C18.4117 12.8441 18.6151 12.7592 18.8491 12.7592C19.0831 12.7592 19.2865 12.8441 19.4592 13.0139L20.9864 14.5662C21.1562 14.7368 21.2411 14.9359 21.2411 15.1634C21.2411 15.3909 21.1561 15.5907 20.9859 15.7627C20.8157 15.9345 20.6161 16.0204 20.3871 16.0204C20.1583 16.0204 19.9582 15.9335 19.7869 15.7597L18.2407 14.2324C18.0668 14.0611 17.9799 13.8577 17.9799 13.6222C17.9799 13.3867 18.0662 13.1839 18.2389 13.0139ZM18.8967 1.09491C19.0667 1.26691 19.1516 1.47033 19.1516 1.70516C19.1516 1.94 19.0667 2.14166 18.8967 2.31016L17.3694 3.84341C17.1957 4.01325 16.9919 4.09816 16.7579 4.09816C16.5237 4.09816 16.3214 4.01275 16.1509 3.84191C15.9771 3.66958 15.8901 3.46583 15.8901 3.23066C15.8901 2.99533 15.9771 2.79341 16.1509 2.62491L17.6971 1.09166C17.869 0.921831 18.0693 0.836914 18.2981 0.836914C18.5271 0.836914 18.7267 0.922914 18.8967 1.09491ZM3.1044 1.09466C3.27523 0.922831 3.47823 0.836914 3.7134 0.836914C3.94873 0.836914 4.15148 0.921831 4.32165 1.09166L5.8549 2.64391C6.02473 2.81558 6.10965 3.01591 6.10965 3.24491C6.10965 3.47391 6.0254 3.67341 5.8569 3.84341C5.68823 4.01325 5.48898 4.09816 5.25915 4.09816C5.02915 4.09816 4.8299 4.01325 4.6614 3.84341L3.10315 2.31016C2.93315 2.14 2.84815 1.93783 2.84815 1.70366C2.84815 1.46966 2.93357 1.26666 3.1044 1.09466ZM3.76515 13.0154C3.93498 13.1861 4.0199 13.3891 4.0199 13.6244C4.0199 13.8596 3.93498 14.0622 3.76515 14.2324L2.2379 15.7597C2.06657 15.9335 1.86315 16.0204 1.62765 16.0204C1.39215 16.0204 1.1894 15.9358 1.0194 15.7667C0.849565 15.5973 0.764648 15.3981 0.764648 15.1689C0.764648 14.9397 0.849565 14.7388 1.0194 14.5662L2.57165 13.0139C2.74232 12.8441 2.9414 12.7592 3.1689 12.7592C3.3964 12.7592 3.59515 12.8446 3.76515 13.0154ZM7.30415 15.5879L11.0009 13.3679L14.7037 15.6134L13.7134 11.4204L16.9781 8.57591L12.6799 8.19966L10.9999 4.23291L9.32765 8.17441L5.02765 8.55691L8.2949 11.3972L7.30415 15.5879ZM10.9999 15.3592L6.4694 18.0934C6.31623 18.1926 6.15373 18.2343 5.9819 18.2187C5.81023 18.203 5.6589 18.1496 5.5279 18.0584C5.39707 17.9674 5.29857 17.8458 5.2324 17.6937C5.16623 17.5417 5.15373 17.3703 5.1949 17.1797L6.39015 12.0172L2.38565 8.51991C2.23648 8.39108 2.1464 8.2455 2.1154 8.08316C2.0844 7.92083 2.08757 7.7635 2.1249 7.61116C2.16223 7.45866 2.24823 7.32966 2.3829 7.22416C2.5174 7.1185 2.67998 7.05733 2.87065 7.04066L8.1599 6.57516L10.2041 1.69716C10.2746 1.52316 10.3845 1.39375 10.5336 1.30891C10.6828 1.22391 10.8361 1.18141 10.9936 1.18141C11.1511 1.18141 11.3061 1.22391 11.4586 1.30891C11.6111 1.39375 11.7235 1.52316 11.7956 1.69716L13.8444 6.57766L19.1351 7.04066C19.3218 7.05733 19.4824 7.1185 19.6169 7.22416C19.7516 7.32966 19.8376 7.45866 19.8749 7.61116C19.9122 7.7635 19.9164 7.92091 19.8874 8.08341C19.8584 8.24591 19.7692 8.39141 19.6199 8.51991L15.6156 12.0172L16.8106 17.1857C16.848 17.3723 16.8322 17.5412 16.7634 17.6922C16.6946 17.8432 16.5982 17.969 16.4744 18.0697C16.3457 18.1592 16.1955 18.2103 16.0236 18.2232C15.852 18.2358 15.6896 18.1946 15.5364 18.0994L10.9999 15.3592Z" fill="black"/>
</svg>
