<svg xmlns="http://www.w3.org/2000/svg" aria-hidden="true" style="position:absolute;width:0;height:0;overflow:hidden">
  <defs>
    <symbol id="keyboard_arrow_down" viewBox="0 0 32 32">
      <path d="M16 20.269c-.149 0-.29-.027-.422-.083s-.259-.143-.381-.265l-6.592-6.592c-.227-.227-.334-.497-.323-.812s.13-.586.357-.812c.227-.227.497-.34.812-.34s.586.113.812.34l5.738 5.771 5.771-5.771c.227-.227.492-.334.796-.323s.569.13.796.357c.227.227.34.497.34.812s-.113.586-.34.812l-6.559 6.559a1.088 1.088 0 0 1-.803.348z"/>
    </symbol>
  </defs>
</svg>
